<svg width="667" height="455" viewBox="0 0 667 455" fill="none" xmlns="http://www.w3.org/2000/svg">
<path d="M633.65 162.5V130H33.35V162.5H633.65ZM633.65 195H33.35V373.75C33.35 400.674 55.747 422.5 83.375 422.5H583.625C611.253 422.5 633.65 400.674 633.65 373.75V195ZM633.65 97.5V81.25C633.65 54.3261 611.253 32.5 583.625 32.5H83.375C55.747 32.5 33.35 54.3261 33.35 81.25V97.5H633.65ZM500.254 381.307C474.558 395.795 441.391 392.065 419.736 370.962C393.688 345.578 393.688 304.422 419.736 279.038C441.355 257.97 474.51 254.18 500.253 268.694C510.063 263.165 521.452 260 533.6 260C570.437 260 600.3 289.101 600.3 325C600.3 360.899 570.437 390 533.6 390C521.453 390 510.064 386.836 500.254 381.307ZM475.231 356.482C469.923 347.155 466.9 336.421 466.9 325C466.9 313.578 469.923 302.844 475.232 293.517C464.127 290.739 451.899 293.657 443.318 302.019C430.294 314.711 430.294 335.289 443.318 347.981C451.91 356.354 464.138 359.256 475.231 356.482ZM0 81.25C0 36.3769 37.3283 0 83.375 0H583.625C629.672 0 667 36.3769 667 81.25V373.75C667 418.623 629.672 455 583.625 455H83.375C37.3283 455 0 418.623 0 373.75V81.25ZM533.6 357.5C552.019 357.5 566.95 342.949 566.95 325C566.95 307.051 552.019 292.5 533.6 292.5C515.181 292.5 500.25 307.051 500.25 325C500.25 342.949 515.181 357.5 533.6 357.5Z" fill="#272727"/>
</svg>
