<svg width="60" height="60" viewBox="0 0 60 60" fill="none" xmlns="http://www.w3.org/2000/svg">
<path d="M40.6406 26.1494C41.1113 26.7212 41.5275 27.2125 41.8537 27.5875L21.8456 47.6013C21.7463 46.9375 21.6375 46.1594 21.4556 45.3363L40.6406 26.1494ZM37.4025 21.8875L32.0906 27.1994C32.5275 27.6738 32.8725 28.2325 33.0863 28.855L38.5144 23.4269C38.1544 22.9431 37.7813 22.4275 37.4025 21.8875ZM30.7425 51.0475H33.3938L35.2744 49.1669C35.3438 48.34 35.5106 47.3238 35.7 46.09L30.7425 51.0475ZM29.5931 22.1969V24.8481L35.4656 18.9756C35.13 18.4431 34.7962 17.8919 34.4644 17.3256L29.5931 22.1969ZM23.2425 51.0475H25.8938L37.6612 39.28C38.175 37.885 38.7956 36.3738 39.54 34.75L23.2425 51.0475ZM23.9681 30.3644C23.9681 28.1013 25.5806 26.2075 27.7181 25.7725V24.0738L17.5369 34.255C17.8294 34.8813 18.1031 35.4887 18.36 36.0831C18.36 36.0831 23.9681 30.3981 23.9681 30.3644ZM27.7181 19.2231V16.5719L15 29.29C15.3206 29.8694 15.6413 30.4488 15.9338 31.0075L27.7181 19.2231ZM27.1575 34.7838C26.5313 34.57 25.9669 34.2381 25.4906 33.7994L19.7437 39.5462C19.9931 40.2344 20.2162 40.8925 20.4169 41.5244L27.1575 34.7838ZM29.5931 14.6969V17.3481L32.7488 14.1925C32.4506 13.6075 32.16 13.015 31.8806 12.4094L29.5931 14.6969ZM29.5931 7.19688V9.84813L30.4556 8.98563C30.2156 8.33125 29.9962 7.66937 29.79 7L29.5931 7.19688ZM27.7181 11.7231V9.07188L26.2537 10.5363C25.5206 12.3194 24.6825 14.0256 23.8013 15.64L27.7181 11.7231Z" fill="#D7D7D7"/>
<path d="M43 50.625H37.3375C37.3169 48.7125 37.7406 41.2237 44.6313 29.0475C45.0381 28.3294 44.9256 27.4294 44.3575 26.8313C44.2413 26.7094 32.7831 14.5406 30.79 1.59C30.6494 0.675 29.8637 0 28.9375 0C28.0113 0 27.2256 0.675 27.085 1.59C25.0919 14.5406 13.6319 26.7113 13.5175 26.8313C12.9494 27.4294 12.8369 28.3294 13.2438 29.0475C20.14 41.235 20.56 48.7125 20.5356 50.625H14.875C13.84 50.625 13 51.465 13 52.5V56.25C13 57.285 13.84 58.125 14.875 58.125H43C44.035 58.125 44.875 57.285 44.875 56.25V52.5C44.875 51.465 44.035 50.625 43 50.625ZM28.9375 27.1294C30.49 27.1294 31.75 28.3894 31.75 29.9419C31.75 31.4944 30.49 32.7544 28.9375 32.7544C27.385 32.7544 26.125 31.4944 26.125 29.9419C26.125 28.3894 27.385 27.1294 28.9375 27.1294ZM14.875 28.125C14.875 28.125 24.5181 17.9813 28 5.96813V25.3481C25.8625 25.7831 24.25 27.6769 24.25 29.94C24.25 32.5238 26.3537 34.6275 28.9375 34.6275C31.5213 34.6275 33.625 32.5238 33.625 29.94C33.625 27.6769 32.0125 25.7831 29.875 25.3481V5.96813C33.3569 17.9813 43 28.125 43 28.125C35.8037 40.8413 35.41 48.5044 35.4644 50.625H22.4106C22.465 48.5044 22.0713 40.8413 14.875 28.125ZM43 56.25H14.875V52.5H43V56.25Z" fill="#858585"/>
<line x1="58.7071" y1="0.707107" x2="0.70711" y2="58.7071" stroke="black" stroke-width="2"/>
</svg>
